<svg xmlns="http://www.w3.org/2000/svg" xmlns:xlink="http://www.w3.org/1999/xlink" width="500" zoomAndPan="magnify" viewBox="0 0 375 374.999991" height="500" preserveAspectRatio="xMidYMid meet" version="1.0"><defs><g/><clipPath id="798eb2008f"><path d="M 196 159 L 276 159 L 276 227 L 196 227 Z M 196 159 " clip-rule="nonzero"/></clipPath><clipPath id="b72c710b9b"><path d="M 233.464844 135.90625 L 318.761719 176.585938 L 273.882812 270.679688 L 188.585938 230 Z M 233.464844 135.90625 " clip-rule="nonzero"/></clipPath><clipPath id="30108fd834"><path d="M 233.464844 135.90625 L 318.761719 176.585938 L 273.882812 270.679688 L 188.585938 230 Z M 233.464844 135.90625 " clip-rule="nonzero"/></clipPath><clipPath id="67781f99a5"><path d="M 233.464844 135.90625 L 318.761719 176.585938 L 273.882812 270.679688 L 188.585938 230 Z M 233.464844 135.90625 " clip-rule="nonzero"/></clipPath><clipPath id="37e9964dd1"><path d="M 194 172 L 292 172 L 292 233 L 194 233 Z M 194 172 " clip-rule="nonzero"/></clipPath><clipPath id="d26c126d58"><path d="M 233.464844 135.90625 L 318.761719 176.585938 L 273.882812 270.679688 L 188.585938 230 Z M 233.464844 135.90625 " clip-rule="nonzero"/></clipPath><clipPath id="4da3633b7a"><path d="M 233.464844 135.90625 L 318.761719 176.585938 L 273.882812 270.679688 L 188.585938 230 Z M 233.464844 135.90625 " clip-rule="nonzero"/></clipPath><clipPath id="444367a392"><path d="M 233.464844 135.90625 L 318.761719 176.585938 L 273.882812 270.679688 L 188.585938 230 Z M 233.464844 135.90625 " clip-rule="nonzero"/></clipPath><clipPath id="11859036f9"><path d="M 199 146 L 260 146 L 260 219 L 199 219 Z M 199 146 " clip-rule="nonzero"/></clipPath><clipPath id="70af769a27"><path d="M 233.464844 135.90625 L 318.761719 176.585938 L 273.882812 270.679688 L 188.585938 230 Z M 233.464844 135.90625 " clip-rule="nonzero"/></clipPath><clipPath id="0f308fe1b9"><path d="M 233.464844 135.90625 L 318.761719 176.585938 L 273.882812 270.679688 L 188.585938 230 Z M 233.464844 135.90625 " clip-rule="nonzero"/></clipPath><clipPath id="bf56ce790a"><path d="M 233.464844 135.90625 L 318.761719 176.585938 L 273.882812 270.679688 L 188.585938 230 Z M 233.464844 135.90625 " clip-rule="nonzero"/></clipPath><clipPath id="95631b4787"><path d="M 98 159 L 179 159 L 179 227 L 98 227 Z M 98 159 " clip-rule="nonzero"/></clipPath><clipPath id="671d317fe9"><path d="M 56.273438 176.28125 L 141.742188 135.972656 L 186.210938 230.261719 L 100.742188 270.574219 Z M 56.273438 176.28125 " clip-rule="nonzero"/></clipPath><clipPath id="0fc8e027c7"><path d="M 141.699219 135.992188 L 56.230469 176.304688 L 100.699219 270.59375 L 186.167969 230.28125 Z M 141.699219 135.992188 " clip-rule="nonzero"/></clipPath><clipPath id="15cbc2c7b3"><path d="M 141.699219 135.992188 L 56.230469 176.304688 L 100.699219 270.59375 L 186.167969 230.28125 Z M 141.699219 135.992188 " clip-rule="nonzero"/></clipPath><clipPath id="7c1f6b8e84"><path d="M 82 172 L 181 172 L 181 233 L 82 233 Z M 82 172 " clip-rule="nonzero"/></clipPath><clipPath id="da7dd85683"><path d="M 56.273438 176.28125 L 141.742188 135.972656 L 186.210938 230.261719 L 100.742188 270.574219 Z M 56.273438 176.28125 " clip-rule="nonzero"/></clipPath><clipPath id="6a02fd6e72"><path d="M 141.699219 135.992188 L 56.230469 176.304688 L 100.699219 270.59375 L 186.167969 230.28125 Z M 141.699219 135.992188 " clip-rule="nonzero"/></clipPath><clipPath id="4eb90846c7"><path d="M 141.699219 135.992188 L 56.230469 176.304688 L 100.699219 270.59375 L 186.167969 230.28125 Z M 141.699219 135.992188 " clip-rule="nonzero"/></clipPath><clipPath id="3cd021ba8d"><path d="M 114 146 L 176 146 L 176 220 L 114 220 Z M 114 146 " clip-rule="nonzero"/></clipPath><clipPath id="6adebf8e7b"><path d="M 56.273438 176.28125 L 141.742188 135.972656 L 186.210938 230.261719 L 100.742188 270.574219 Z M 56.273438 176.28125 " clip-rule="nonzero"/></clipPath><clipPath id="65766baa19"><path d="M 141.699219 135.992188 L 56.230469 176.304688 L 100.699219 270.59375 L 186.167969 230.28125 Z M 141.699219 135.992188 " clip-rule="nonzero"/></clipPath><clipPath id="34be5da4be"><path d="M 141.699219 135.992188 L 56.230469 176.304688 L 100.699219 270.59375 L 186.167969 230.28125 Z M 141.699219 135.992188 " clip-rule="nonzero"/></clipPath><clipPath id="90632b5676"><path d="M 142.328125 104.609375 L 214 104.609375 L 214 128 L 142.328125 128 Z M 142.328125 104.609375 " clip-rule="nonzero"/></clipPath><clipPath id="2b57302c84"><path d="M 157 126 L 216.578125 126 L 216.578125 212.609375 L 157 212.609375 Z M 157 126 " clip-rule="nonzero"/></clipPath></defs><g clip-path="url(#798eb2008f)"><g clip-path="url(#b72c710b9b)"><g clip-path="url(#30108fd834)"><g clip-path="url(#67781f99a5)"><path fill="#3871c1" d="M 275.824219 219.132812 L 270.738281 159.085938 C 270.738281 159.085938 264.714844 159.816406 257.59375 162.042969 L 258.101562 168.054688 C 260.023438 167.960938 262.050781 168.003906 264.179688 168.230469 L 268.574219 211.738281 C 268.574219 211.738281 219.320312 206.105469 196.546875 226.332031 C 196.546875 226.332031 225 209.214844 275.824219 219.132812 " fill-opacity="1" fill-rule="nonzero"/></g></g></g></g><g clip-path="url(#37e9964dd1)"><g clip-path="url(#d26c126d58)"><g clip-path="url(#4da3633b7a)"><g clip-path="url(#444367a392)"><path fill="#2e3192" d="M 286.765625 172.902344 C 286.765625 172.902344 280.746094 173.632812 273.625 175.859375 L 274.132812 181.871094 C 276.054688 181.773438 278.082031 181.816406 280.210938 182.042969 L 284.601562 225.554688 C 284.601562 225.554688 226.253906 212.460938 194.152344 232.660156 C 194.152344 232.660156 229.535156 220.21875 291.855469 232.949219 L 286.765625 172.902344 " fill-opacity="1" fill-rule="nonzero"/></g></g></g></g><g clip-path="url(#11859036f9)"><g clip-path="url(#70af769a27)"><g clip-path="url(#0f308fe1b9)"><g clip-path="url(#bf56ce790a)"><path fill="#00adef" d="M 199.371094 218.878906 C 199.371094 218.878906 223.773438 199.4375 259.875 206.125 L 254.789062 146.078125 C 254.789062 146.078125 227.640625 149.367188 220.429688 163.296875 C 220.429688 163.296875 231.136719 153.402344 248.230469 155.21875 L 252.625 198.730469 C 252.625 198.730469 217.703125 197.527344 199.371094 218.878906 " fill-opacity="1" fill-rule="nonzero"/></g></g></g></g><g clip-path="url(#95631b4787)"><g clip-path="url(#671d317fe9)"><g clip-path="url(#0fc8e027c7)"><g clip-path="url(#15cbc2c7b3)"><path fill="#3871c1" d="M 98.984375 219.035156 L 104.332031 159.011719 C 104.332031 159.011719 110.347656 159.769531 117.460938 162.027344 L 116.925781 168.035156 C 115.003906 167.933594 112.976562 167.964844 110.847656 168.183594 L 106.265625 211.675781 C 106.265625 211.675781 155.539062 206.253906 178.226562 226.582031 C 178.226562 226.582031 149.847656 209.339844 98.984375 219.035156 " fill-opacity="1" fill-rule="nonzero"/></g></g></g></g><g clip-path="url(#7c1f6b8e84)"><g clip-path="url(#da7dd85683)"><g clip-path="url(#6a02fd6e72)"><g clip-path="url(#4eb90846c7)"><path fill="#2e3192" d="M 88.242188 172.757812 C 88.242188 172.757812 94.257812 173.515625 101.371094 175.773438 L 100.835938 181.78125 C 98.914062 181.675781 96.886719 181.710938 94.757812 181.929688 L 90.175781 225.417969 C 90.175781 225.417969 148.578125 212.582031 180.59375 232.917969 C 180.59375 232.917969 145.265625 220.320312 82.890625 232.78125 L 88.242188 172.757812 " fill-opacity="1" fill-rule="nonzero"/></g></g></g></g><g clip-path="url(#3cd021ba8d)"><g clip-path="url(#6adebf8e7b)"><g clip-path="url(#65766baa19)"><g clip-path="url(#34be5da4be)"><path fill="#00adef" d="M 175.433594 219.113281 C 175.433594 219.113281 151.117188 199.566406 114.988281 206.097656 L 120.335938 146.074219 C 120.335938 146.074219 147.46875 149.480469 154.621094 163.445312 C 154.621094 163.445312 143.953125 153.5 126.851562 155.246094 L 122.269531 198.734375 C 122.269531 198.734375 157.195312 197.6875 175.433594 219.113281 " fill-opacity="1" fill-rule="nonzero"/></g></g></g></g><g clip-path="url(#90632b5676)"><path fill="#00adef" d="M 213.503906 116.730469 C 213.429688 117.910156 212.605469 118.910156 211.492188 119.3125 L 188.195312 127.753906 C 187.875 127.867188 187.535156 127.925781 187.199219 127.925781 C 186.863281 127.925781 186.523438 127.867188 186.203125 127.753906 L 164.523438 119.902344 C 163.839844 119.652344 163.503906 118.863281 163.824219 118.191406 C 164.105469 117.601562 164.8125 117.351562 165.425781 117.574219 L 187.050781 125.40625 C 187.148438 125.441406 187.25 125.441406 187.34375 125.40625 L 210.730469 116.933594 C 210.960938 116.851562 211.011719 116.671875 211.011719 116.535156 C 211.015625 116.421875 210.980469 116.222656 210.738281 116.132812 L 187.351562 107.199219 C 187.253906 107.164062 187.144531 107.164062 187.046875 107.199219 L 170.875 113.375 C 171.449219 113.582031 172.039062 113.804688 172.640625 114.046875 C 181.222656 117.5 187.101562 114.597656 189.214844 113.203125 C 189.421875 113.066406 189.660156 113 189.894531 113 C 190.242188 113 190.582031 113.144531 190.828125 113.417969 C 191.332031 113.988281 191.210938 114.871094 190.574219 115.289062 C 188 116.976562 181.289062 120.21875 171.710938 116.363281 C 158.292969 110.960938 153.019531 115.59375 151.34375 117.902344 L 152.878906 118.832031 L 149.109375 124.90625 C 148.15625 126.441406 146.160156 126.957031 144.582031 126.070312 C 142.914062 125.128906 142.359375 122.992188 143.359375 121.363281 L 147.066406 115.3125 L 149.234375 116.625 C 151.039062 114.128906 156.003906 109.542969 166.957031 112.203125 L 186.15625 104.871094 C 186.828125 104.613281 187.570312 104.613281 188.242188 104.871094 L 211.628906 113.800781 C 212.835938 114.261719 213.589844 115.421875 213.503906 116.730469 Z M 213.503906 116.730469 " fill-opacity="1" fill-rule="nonzero"/></g><g clip-path="url(#2b57302c84)"><path fill="#00adef" d="M 198.40625 126.914062 L 188.195312 130.613281 C 187.875 130.730469 187.535156 130.789062 187.199219 130.789062 C 186.863281 130.789062 186.523438 130.730469 186.203125 130.613281 L 175.632812 126.785156 C 170.871094 143.253906 157.832031 156.554688 157.832031 156.554688 C 161.59375 160.96875 165.28125 166.609375 168.738281 172.886719 L 179.207031 195.472656 C 181.160156 200.484375 184.289062 208.167969 185.734375 212.871094 L 185.410156 188.910156 C 185.570312 185.359375 185.578125 167.46875 185.488281 159.621094 C 184.347656 159.039062 183.566406 157.859375 183.566406 156.492188 C 183.566406 154.578125 185.097656 153.027344 187 152.988281 C 188.90625 153.027344 190.4375 154.578125 190.4375 156.492188 C 190.4375 157.859375 189.652344 159.039062 188.511719 159.621094 C 188.421875 167.46875 188.429688 185.359375 188.589844 188.910156 L 188.265625 212.871094 C 189.714844 208.167969 192.839844 200.480469 194.792969 195.472656 L 205.265625 172.886719 C 208.71875 166.609375 212.410156 160.96875 216.171875 156.554688 C 216.171875 156.554688 203.199219 143.324219 198.40625 126.914062 Z M 198.40625 126.914062 " fill-opacity="1" fill-rule="nonzero"/></g><g fill="#2e3192" fill-opacity="1"><g transform="translate(40.626956, 259.57116)"><g><path d="M 2.015625 -12.390625 L 3.328125 -12.390625 L 3.328125 -1.140625 L 10.265625 -1.140625 L 10.265625 0 L 2.015625 0 Z M 2.015625 -12.390625 "/></g></g></g><g fill="#2e3192" fill-opacity="1"><g transform="translate(53.881492, 259.57116)"><g><path d="M 10.78125 -1.140625 L 10.78125 0 L 2.015625 0 L 2.015625 -12.390625 L 10.515625 -12.390625 L 10.515625 -11.265625 L 3.328125 -11.265625 L 3.328125 -6.84375 L 9.734375 -6.84375 L 9.734375 -5.734375 L 3.328125 -5.734375 L 3.328125 -1.140625 Z M 10.78125 -1.140625 "/></g></g></g><g fill="#2e3192" fill-opacity="1"><g transform="translate(68.551651, 259.57116)"><g><path d="M 9.796875 -3.3125 L 2.890625 -3.3125 L 1.40625 0 L 0.03125 0 L 5.703125 -12.390625 L 7 -12.390625 L 12.65625 0 L 11.28125 0 Z M 9.3125 -4.375 L 6.34375 -11.03125 L 3.359375 -4.375 Z M 9.3125 -4.375 "/></g></g></g><g fill="#2e3192" fill-opacity="1"><g transform="translate(84.07118, 259.57116)"><g><path d="M 10.484375 0 L 7.640625 -3.984375 C 7.328125 -3.953125 7 -3.9375 6.65625 -3.9375 L 3.328125 -3.9375 L 3.328125 0 L 2.015625 0 L 2.015625 -12.390625 L 6.65625 -12.390625 C 8.238281 -12.390625 9.476562 -12.007812 10.375 -11.25 C 11.269531 -10.5 11.71875 -9.460938 11.71875 -8.140625 C 11.71875 -7.171875 11.472656 -6.351562 10.984375 -5.6875 C 10.492188 -5.019531 9.796875 -4.539062 8.890625 -4.25 L 11.921875 0 Z M 6.625 -5.046875 C 7.851562 -5.046875 8.789062 -5.316406 9.4375 -5.859375 C 10.082031 -6.398438 10.40625 -7.160156 10.40625 -8.140625 C 10.40625 -9.140625 10.082031 -9.910156 9.4375 -10.453125 C 8.789062 -10.992188 7.851562 -11.265625 6.625 -11.265625 L 3.328125 -11.265625 L 3.328125 -5.046875 Z M 6.625 -5.046875 "/></g></g></g><g fill="#2e3192" fill-opacity="1"><g transform="translate(99.696874, 259.57116)"><g><path d="M 12.375 -12.390625 L 12.375 0 L 11.296875 0 L 3.328125 -10.0625 L 3.328125 0 L 2.015625 0 L 2.015625 -12.390625 L 3.09375 -12.390625 L 11.078125 -2.34375 L 11.078125 -12.390625 Z M 12.375 -12.390625 "/></g></g></g><g fill="#2e3192" fill-opacity="1"><g transform="translate(116.91515, 259.57116)"><g><path d="M 2.015625 -12.390625 L 3.328125 -12.390625 L 3.328125 0 L 2.015625 0 Z M 2.015625 -12.390625 "/></g></g></g><g fill="#2e3192" fill-opacity="1"><g transform="translate(125.091152, 259.57116)"><g><path d="M 12.375 -12.390625 L 12.375 0 L 11.296875 0 L 3.328125 -10.0625 L 3.328125 0 L 2.015625 0 L 2.015625 -12.390625 L 3.09375 -12.390625 L 11.078125 -2.34375 L 11.078125 -12.390625 Z M 12.375 -12.390625 "/></g></g></g><g fill="#2e3192" fill-opacity="1"><g transform="translate(142.309433, 259.57116)"><g><path d="M 10.75 -6.203125 L 12 -6.203125 L 12 -1.46875 C 11.425781 -0.957031 10.742188 -0.566406 9.953125 -0.296875 C 9.160156 -0.0234375 8.328125 0.109375 7.453125 0.109375 C 6.210938 0.109375 5.097656 -0.160156 4.109375 -0.703125 C 3.117188 -1.242188 2.335938 -1.992188 1.765625 -2.953125 C 1.203125 -3.921875 0.921875 -5.003906 0.921875 -6.203125 C 0.921875 -7.390625 1.203125 -8.460938 1.765625 -9.421875 C 2.335938 -10.390625 3.117188 -11.144531 4.109375 -11.6875 C 5.097656 -12.226562 6.21875 -12.5 7.46875 -12.5 C 8.414062 -12.5 9.285156 -12.347656 10.078125 -12.046875 C 10.867188 -11.742188 11.535156 -11.296875 12.078125 -10.703125 L 11.265625 -9.875 C 10.285156 -10.84375 9.039062 -11.328125 7.53125 -11.328125 C 6.519531 -11.328125 5.609375 -11.101562 4.796875 -10.65625 C 3.992188 -10.21875 3.363281 -9.601562 2.90625 -8.8125 C 2.445312 -8.03125 2.21875 -7.160156 2.21875 -6.203125 C 2.21875 -5.234375 2.445312 -4.359375 2.90625 -3.578125 C 3.363281 -2.796875 3.992188 -2.179688 4.796875 -1.734375 C 5.597656 -1.285156 6.5 -1.0625 7.5 -1.0625 C 8.78125 -1.0625 9.863281 -1.378906 10.75 -2.015625 Z M 10.75 -6.203125 "/></g></g></g><g fill="#2e3192" fill-opacity="1"><g transform="translate(158.819892, 259.57116)"><g/></g></g><g fill="#2e3192" fill-opacity="1"><g transform="translate(166.288077, 259.57116)"><g><path d="M 14.890625 -12.390625 L 14.890625 0 L 13.625 0 L 13.625 -9.90625 L 8.765625 -1.578125 L 8.140625 -1.578125 L 3.28125 -9.859375 L 3.28125 0 L 2.015625 0 L 2.015625 -12.390625 L 3.09375 -12.390625 L 8.484375 -3.203125 L 13.8125 -12.390625 Z M 14.890625 -12.390625 "/></g></g></g><g fill="#2e3192" fill-opacity="1"><g transform="translate(186.019075, 259.57116)"><g><path d="M 9.796875 -3.3125 L 2.890625 -3.3125 L 1.40625 0 L 0.03125 0 L 5.703125 -12.390625 L 7 -12.390625 L 12.65625 0 L 11.28125 0 Z M 9.3125 -4.375 L 6.34375 -11.03125 L 3.359375 -4.375 Z M 9.3125 -4.375 "/></g></g></g><g fill="#2e3192" fill-opacity="1"><g transform="translate(201.538601, 259.57116)"><g><path d="M 12.375 -12.390625 L 12.375 0 L 11.296875 0 L 3.328125 -10.0625 L 3.328125 0 L 2.015625 0 L 2.015625 -12.390625 L 3.09375 -12.390625 L 11.078125 -2.34375 L 11.078125 -12.390625 Z M 12.375 -12.390625 "/></g></g></g><g fill="#2e3192" fill-opacity="1"><g transform="translate(218.756877, 259.57116)"><g><path d="M 9.796875 -3.3125 L 2.890625 -3.3125 L 1.40625 0 L 0.03125 0 L 5.703125 -12.390625 L 7 -12.390625 L 12.65625 0 L 11.28125 0 Z M 9.3125 -4.375 L 6.34375 -11.03125 L 3.359375 -4.375 Z M 9.3125 -4.375 "/></g></g></g><g fill="#2e3192" fill-opacity="1"><g transform="translate(234.276404, 259.57116)"><g><path d="M 10.75 -6.203125 L 12 -6.203125 L 12 -1.46875 C 11.425781 -0.957031 10.742188 -0.566406 9.953125 -0.296875 C 9.160156 -0.0234375 8.328125 0.109375 7.453125 0.109375 C 6.210938 0.109375 5.097656 -0.160156 4.109375 -0.703125 C 3.117188 -1.242188 2.335938 -1.992188 1.765625 -2.953125 C 1.203125 -3.921875 0.921875 -5.003906 0.921875 -6.203125 C 0.921875 -7.390625 1.203125 -8.460938 1.765625 -9.421875 C 2.335938 -10.390625 3.117188 -11.144531 4.109375 -11.6875 C 5.097656 -12.226562 6.21875 -12.5 7.46875 -12.5 C 8.414062 -12.5 9.285156 -12.347656 10.078125 -12.046875 C 10.867188 -11.742188 11.535156 -11.296875 12.078125 -10.703125 L 11.265625 -9.875 C 10.285156 -10.84375 9.039062 -11.328125 7.53125 -11.328125 C 6.519531 -11.328125 5.609375 -11.101562 4.796875 -10.65625 C 3.992188 -10.21875 3.363281 -9.601562 2.90625 -8.8125 C 2.445312 -8.03125 2.21875 -7.160156 2.21875 -6.203125 C 2.21875 -5.234375 2.445312 -4.359375 2.90625 -3.578125 C 3.363281 -2.796875 3.992188 -2.179688 4.796875 -1.734375 C 5.597656 -1.285156 6.5 -1.0625 7.5 -1.0625 C 8.78125 -1.0625 9.863281 -1.378906 10.75 -2.015625 Z M 10.75 -6.203125 "/></g></g></g><g fill="#2e3192" fill-opacity="1"><g transform="translate(250.786863, 259.57116)"><g><path d="M 10.78125 -1.140625 L 10.78125 0 L 2.015625 0 L 2.015625 -12.390625 L 10.515625 -12.390625 L 10.515625 -11.265625 L 3.328125 -11.265625 L 3.328125 -6.84375 L 9.734375 -6.84375 L 9.734375 -5.734375 L 3.328125 -5.734375 L 3.328125 -1.140625 Z M 10.78125 -1.140625 "/></g></g></g><g fill="#2e3192" fill-opacity="1"><g transform="translate(265.45702, 259.57116)"><g><path d="M 14.890625 -12.390625 L 14.890625 0 L 13.625 0 L 13.625 -9.90625 L 8.765625 -1.578125 L 8.140625 -1.578125 L 3.28125 -9.859375 L 3.28125 0 L 2.015625 0 L 2.015625 -12.390625 L 3.09375 -12.390625 L 8.484375 -3.203125 L 13.8125 -12.390625 Z M 14.890625 -12.390625 "/></g></g></g><g fill="#2e3192" fill-opacity="1"><g transform="translate(285.188029, 259.57116)"><g><path d="M 10.78125 -1.140625 L 10.78125 0 L 2.015625 0 L 2.015625 -12.390625 L 10.515625 -12.390625 L 10.515625 -11.265625 L 3.328125 -11.265625 L 3.328125 -6.84375 L 9.734375 -6.84375 L 9.734375 -5.734375 L 3.328125 -5.734375 L 3.328125 -1.140625 Z M 10.78125 -1.140625 "/></g></g></g><g fill="#2e3192" fill-opacity="1"><g transform="translate(299.858187, 259.57116)"><g><path d="M 12.375 -12.390625 L 12.375 0 L 11.296875 0 L 3.328125 -10.0625 L 3.328125 0 L 2.015625 0 L 2.015625 -12.390625 L 3.09375 -12.390625 L 11.078125 -2.34375 L 11.078125 -12.390625 Z M 12.375 -12.390625 "/></g></g></g><g fill="#2e3192" fill-opacity="1"><g transform="translate(317.076463, 259.57116)"><g><path d="M 4.421875 -11.265625 L 0.078125 -11.265625 L 0.078125 -12.390625 L 10.09375 -12.390625 L 10.09375 -11.265625 L 5.734375 -11.265625 L 5.734375 0 L 4.421875 0 Z M 4.421875 -11.265625 "/></g></g></g><g fill="#2e3192" fill-opacity="1"><g transform="translate(140.904293, 284.321158)"><g><path d="M 5.4375 0.109375 C 4.507812 0.109375 3.625 -0.0351562 2.78125 -0.328125 C 1.9375 -0.628906 1.285156 -1.019531 0.828125 -1.5 L 1.34375 -2.515625 C 1.789062 -2.066406 2.382812 -1.703125 3.125 -1.421875 C 3.875 -1.148438 4.644531 -1.015625 5.4375 -1.015625 C 6.539062 -1.015625 7.367188 -1.21875 7.921875 -1.625 C 8.484375 -2.03125 8.765625 -2.554688 8.765625 -3.203125 C 8.765625 -3.703125 8.613281 -4.097656 8.3125 -4.390625 C 8.007812 -4.679688 7.640625 -4.90625 7.203125 -5.0625 C 6.765625 -5.226562 6.15625 -5.40625 5.375 -5.59375 C 4.445312 -5.832031 3.703125 -6.0625 3.140625 -6.28125 C 2.585938 -6.5 2.113281 -6.832031 1.71875 -7.28125 C 1.332031 -7.726562 1.140625 -8.332031 1.140625 -9.09375 C 1.140625 -9.71875 1.300781 -10.285156 1.625 -10.796875 C 1.957031 -11.316406 2.460938 -11.726562 3.140625 -12.03125 C 3.828125 -12.34375 4.679688 -12.5 5.703125 -12.5 C 6.410156 -12.5 7.101562 -12.398438 7.78125 -12.203125 C 8.457031 -12.015625 9.046875 -11.75 9.546875 -11.40625 L 9.09375 -10.359375 C 8.582031 -10.703125 8.03125 -10.957031 7.4375 -11.125 C 6.84375 -11.300781 6.265625 -11.390625 5.703125 -11.390625 C 4.617188 -11.390625 3.800781 -11.175781 3.25 -10.75 C 2.695312 -10.332031 2.421875 -9.796875 2.421875 -9.140625 C 2.421875 -8.640625 2.570312 -8.238281 2.875 -7.9375 C 3.175781 -7.632812 3.550781 -7.40625 4 -7.25 C 4.457031 -7.09375 5.070312 -6.921875 5.84375 -6.734375 C 6.75 -6.503906 7.484375 -6.28125 8.046875 -6.0625 C 8.609375 -5.84375 9.082031 -5.507812 9.46875 -5.0625 C 9.863281 -4.625 10.0625 -4.03125 10.0625 -3.28125 C 10.0625 -2.65625 9.890625 -2.082031 9.546875 -1.5625 C 9.210938 -1.050781 8.695312 -0.644531 8 -0.34375 C 7.300781 -0.0390625 6.445312 0.109375 5.4375 0.109375 Z M 5.4375 0.109375 "/></g></g></g><g fill="#2e3192" fill-opacity="1"><g transform="translate(154.618905, 284.321158)"><g><path d="M 6.265625 -4.28125 L 6.265625 0 L 4.96875 0 L 4.96875 -4.28125 L 0.015625 -12.390625 L 1.421875 -12.390625 L 5.671875 -5.4375 L 9.90625 -12.390625 L 11.21875 -12.390625 Z M 6.265625 -4.28125 "/></g></g></g><g fill="#2e3192" fill-opacity="1"><g transform="translate(168.687425, 284.321158)"><g><path d="M 5.4375 0.109375 C 4.507812 0.109375 3.625 -0.0351562 2.78125 -0.328125 C 1.9375 -0.628906 1.285156 -1.019531 0.828125 -1.5 L 1.34375 -2.515625 C 1.789062 -2.066406 2.382812 -1.703125 3.125 -1.421875 C 3.875 -1.148438 4.644531 -1.015625 5.4375 -1.015625 C 6.539062 -1.015625 7.367188 -1.21875 7.921875 -1.625 C 8.484375 -2.03125 8.765625 -2.554688 8.765625 -3.203125 C 8.765625 -3.703125 8.613281 -4.097656 8.3125 -4.390625 C 8.007812 -4.679688 7.640625 -4.90625 7.203125 -5.0625 C 6.765625 -5.226562 6.15625 -5.40625 5.375 -5.59375 C 4.445312 -5.832031 3.703125 -6.0625 3.140625 -6.28125 C 2.585938 -6.5 2.113281 -6.832031 1.71875 -7.28125 C 1.332031 -7.726562 1.140625 -8.332031 1.140625 -9.09375 C 1.140625 -9.71875 1.300781 -10.285156 1.625 -10.796875 C 1.957031 -11.316406 2.460938 -11.726562 3.140625 -12.03125 C 3.828125 -12.34375 4.679688 -12.5 5.703125 -12.5 C 6.410156 -12.5 7.101562 -12.398438 7.78125 -12.203125 C 8.457031 -12.015625 9.046875 -11.75 9.546875 -11.40625 L 9.09375 -10.359375 C 8.582031 -10.703125 8.03125 -10.957031 7.4375 -11.125 C 6.84375 -11.300781 6.265625 -11.390625 5.703125 -11.390625 C 4.617188 -11.390625 3.800781 -11.175781 3.25 -10.75 C 2.695312 -10.332031 2.421875 -9.796875 2.421875 -9.140625 C 2.421875 -8.640625 2.570312 -8.238281 2.875 -7.9375 C 3.175781 -7.632812 3.550781 -7.40625 4 -7.25 C 4.457031 -7.09375 5.070312 -6.921875 5.84375 -6.734375 C 6.75 -6.503906 7.484375 -6.28125 8.046875 -6.0625 C 8.609375 -5.84375 9.082031 -5.507812 9.46875 -5.0625 C 9.863281 -4.625 10.0625 -4.03125 10.0625 -3.28125 C 10.0625 -2.65625 9.890625 -2.082031 9.546875 -1.5625 C 9.210938 -1.050781 8.695312 -0.644531 8 -0.34375 C 7.300781 -0.0390625 6.445312 0.109375 5.4375 0.109375 Z M 5.4375 0.109375 "/></g></g></g><g fill="#2e3192" fill-opacity="1"><g transform="translate(182.402038, 284.321158)"><g><path d="M 4.421875 -11.265625 L 0.078125 -11.265625 L 0.078125 -12.390625 L 10.09375 -12.390625 L 10.09375 -11.265625 L 5.734375 -11.265625 L 5.734375 0 L 4.421875 0 Z M 4.421875 -11.265625 "/></g></g></g><g fill="#2e3192" fill-opacity="1"><g transform="translate(195.39115, 284.321158)"><g><path d="M 10.78125 -1.140625 L 10.78125 0 L 2.015625 0 L 2.015625 -12.390625 L 10.515625 -12.390625 L 10.515625 -11.265625 L 3.328125 -11.265625 L 3.328125 -6.84375 L 9.734375 -6.84375 L 9.734375 -5.734375 L 3.328125 -5.734375 L 3.328125 -1.140625 Z M 10.78125 -1.140625 "/></g></g></g><g fill="#2e3192" fill-opacity="1"><g transform="translate(210.061307, 284.321158)"><g><path d="M 14.890625 -12.390625 L 14.890625 0 L 13.625 0 L 13.625 -9.90625 L 8.765625 -1.578125 L 8.140625 -1.578125 L 3.28125 -9.859375 L 3.28125 0 L 2.015625 0 L 2.015625 -12.390625 L 3.09375 -12.390625 L 8.484375 -3.203125 L 13.8125 -12.390625 Z M 14.890625 -12.390625 "/></g></g></g></svg>